<svg width="15" height="29" viewBox="0 0 15 29" fill="none" xmlns="http://www.w3.org/2000/svg">
<path d="M12.9965 0.941525C13.4638 0.940611 13.9167 1.10336 14.2765 1.40152C14.479 1.56942 14.6464 1.77563 14.7691 2.00832C14.8918 2.24101 14.9674 2.49563 14.9916 2.75758C15.0157 3.01953 14.9879 3.28368 14.9099 3.53489C14.8318 3.78609 14.7049 4.01943 14.5365 4.22152L5.57648 14.9415L14.2165 25.6815C14.3826 25.8861 14.5067 26.1215 14.5815 26.3742C14.6564 26.6269 14.6806 26.8918 14.6527 27.1539C14.6248 27.4159 14.5454 27.6699 14.4191 27.9012C14.2927 28.1325 14.1219 28.3365 13.9165 28.5015C13.7095 28.6836 13.4672 28.8209 13.2047 28.9049C12.9422 28.9889 12.6651 29.0177 12.3909 28.9895C12.1167 28.9614 11.8513 28.8768 11.6114 28.7412C11.3714 28.6056 11.1621 28.4219 10.9965 28.2015L1.33648 16.2015C1.04232 15.8437 0.881505 15.3948 0.881505 14.9315C0.881505 14.4683 1.04232 14.0194 1.33648 13.6615L11.3365 1.66153C11.5371 1.41949 11.792 1.22816 12.0804 1.10307C12.3688 0.977968 12.6827 0.922623 12.9965 0.941525Z" fill="#4ECB71"/>
</svg>
