<svg width="15" height="29" viewBox="0 0 15 29" fill="none" xmlns="http://www.w3.org/2000/svg">
<path d="M2.00352 28.0585C1.53622 28.0594 1.08334 27.8966 0.72352 27.5985C0.521003 27.4306 0.353599 27.2244 0.230895 26.9917C0.108191 26.759 0.0325986 26.5044 0.00844685 26.2424C-0.0157049 25.9805 0.0120592 25.7163 0.0901481 25.4651C0.168237 25.2139 0.295115 24.9806 0.463519 24.7785L9.42352 14.0585L0.783521 3.31848C0.617389 3.1139 0.493325 2.87851 0.418462 2.62583C0.343599 2.37315 0.319411 2.10817 0.347289 1.84611C0.375168 1.58405 0.454561 1.33009 0.580909 1.09882C0.707257 0.867543 0.878067 0.66352 1.08352 0.498475C1.29045 0.316402 1.53278 0.179067 1.79531 0.0950886C2.05783 0.0111105 2.33488 -0.0176969 2.60907 0.0104729C2.88326 0.0386427 3.14866 0.123182 3.38862 0.258786C3.62859 0.39439 3.83793 0.578129 4.00352 0.798475L13.6635 12.7985C13.9577 13.1563 14.1185 13.6052 14.1185 14.0685C14.1185 14.5317 13.9577 14.9806 13.6635 15.3385L3.66352 27.3385C3.46289 27.5805 3.20802 27.7718 2.9196 27.8969C2.63118 28.022 2.31733 28.0774 2.00352 28.0585Z" fill="#4ECB71"/>
</svg>
