<svg width="40" height="40" viewBox="0 0 40 40" fill="none" xmlns="http://www.w3.org/2000/svg">
<g clip-path="url(#clip0)">
<path d="M35.4587 3.17565C30.1856 7.7394 25.7244 12.0838 21.64 17.7519C19.8387 20.2519 17.8356 23.1944 16.5262 25.9725C15.7787 27.4457 14.4312 29.7475 13.9719 31.9607C11.4594 29.6231 8.76061 26.97 5.99936 24.8919C4.03123 23.4113 -1.63752 26.43 0.669982 28.1663C4.80561 31.2769 8.24498 35.1513 12.2675 38.4007C13.95 39.7582 17.6787 36.81 18.555 35.5732C21.4312 31.4981 21.8244 26.5169 23.9206 22.0719C27.1212 15.2738 32.7975 9.6894 38.4019 4.84003C42.115 1.3769 38.28 0.738151 35.4644 3.17565" fill="#FFB800"/>
</g>
<defs>
<clipPath id="clip0">
<rect width="40" height="40" fill="white"/>
</clipPath>
</defs>
</svg>
