<svg width="50" height="50" viewBox="0 0 50 50" fill="none" xmlns="http://www.w3.org/2000/svg">
<path d="M48.0774 0.67966C47.6128 0.37811 47.0933 0.171054 46.5486 0.0703192C46.004 -0.0304152 45.4448 -0.0228537 44.903 0.0925716C44.3613 0.207997 43.8476 0.429024 43.3913 0.743028C42.935 1.05703 42.545 1.45786 42.2437 1.92261L18.608 38.3548L7.08119 27.6969C6.67451 27.3209 6.19774 27.0286 5.67812 26.8369C5.15849 26.6451 4.60618 26.5575 4.05272 26.5792C2.93496 26.623 1.88037 27.109 1.12094 27.9303C0.361513 28.7517 -0.0405381 29.841 0.00323375 30.9588C0.0470056 32.0765 0.533014 33.1311 1.35434 33.8906L16.4891 47.8836C16.4891 47.8836 16.9235 48.2576 17.1246 48.3884C17.5893 48.6901 18.1089 48.8974 18.6537 48.9982C19.1985 49.0991 19.7578 49.0916 20.2997 48.9761C20.8416 48.8607 21.3555 48.6396 21.8119 48.3255C22.2683 48.0113 22.6584 47.6103 22.9597 47.1454L49.3203 6.51336C49.6219 6.04874 49.8289 5.52926 49.9297 4.98459C50.0304 4.43993 50.0229 3.88075 49.9074 3.33901C49.792 2.79727 49.571 2.28358 49.257 1.82728C48.943 1.37098 48.5421 0.981013 48.0774 0.67966V0.67966Z" fill="#0A9832"/>
</svg>
