<svg width="36" height="32" viewBox="0 0 36 32" fill="none" xmlns="http://www.w3.org/2000/svg">
<path d="M20 0C11.1634 0 4 7.16344 4 16C4 24.8366 11.1634 32 20 32C28.8366 32 36 24.8366 36 16C36 7.16344 28.8366 0 20 0ZM14.25 6.35547C14.5797 6.33603 14.8776 6.53307 15.1035 6.8828L17.291 11.0312C17.5213 11.5228 17.3905 12.0491 17.0469 12.4004L16.0449 13.4023C15.9831 13.4871 15.9424 13.5825 15.9414 13.6875C16.3257 15.1748 17.4912 16.5467 18.5196 17.4902C19.5479 18.4337 20.6531 19.711 22.0879 20.0137C22.2652 20.0631 22.4825 20.0809 22.6094 19.9629L23.7734 18.7774C24.1753 18.4728 24.7565 18.3252 25.1855 18.5742H25.2051L29.1523 20.9043C29.7317 21.2675 29.7917 21.9695 29.3769 22.3965L26.6582 25.0938C26.2567 25.5055 25.7233 25.6439 25.2051 25.6445C22.9132 25.5759 20.7476 24.451 18.9688 23.2949C16.0491 21.1709 13.3709 18.5364 11.6895 15.3535C11.0446 14.0189 10.2871 12.3159 10.3594 10.8262C10.3658 10.2658 10.5175 9.71675 10.9121 9.35552L13.6309 6.63677C13.8427 6.45656 14.0522 6.36715 14.25 6.35547V6.35547Z" fill="#FFD24D"/>
<path d="M2.26141 27.7899L5.20364 21.5684L9.12053 27.2272L2.26141 27.7899Z" fill="#FFD24D"/>
</svg>
